<svg width="500" height="595" viewBox="0 0 500 595" fill="none" xmlns="http://www.w3.org/2000/svg">
<path d="M125.294 142.084C120.811 142.113 116.332 141.82 111.891 141.206C111.198 141.098 110.562 140.76 110.085 140.247C109.608 139.734 109.317 139.076 109.259 138.378C109.201 137.679 109.379 136.982 109.765 136.397C110.151 135.812 110.723 135.374 111.387 135.153C111.369 135.153 118.687 131.775 121.337 110.597C122.675 94.775 131.703 90.2844 142.156 85.0625C142.524 84.8757 142.925 84.7636 143.336 84.7325C143.747 84.7015 144.161 84.7521 144.552 84.8816C144.944 85.011 145.306 85.2166 145.618 85.4867C145.929 85.7567 146.185 86.0858 146.368 86.4549C146.552 86.824 146.661 87.2258 146.689 87.6373C146.717 88.0487 146.663 88.4617 146.531 88.8522C146.399 89.2428 146.19 89.6032 145.918 89.9129C145.645 90.2225 145.314 90.4751 144.944 90.6562C133.909 96.1594 128.562 99.3312 127.55 111.25C125.953 124.034 122.662 131.412 119.644 135.625C132.722 136.269 161.322 135.178 176.206 115.15L179.844 110.25C189.975 96.6844 189.975 96.6844 192.228 86.2062C194.103 77.525 192.353 70.4125 190.509 62.8875C190.069 61.0781 189.622 59.2531 189.213 57.3812C189.036 56.5711 189.189 55.7241 189.638 55.0267C190.086 54.3293 190.793 53.8386 191.603 53.6625C192.413 53.4864 193.26 53.6393 193.958 54.0876C194.655 54.536 195.146 55.243 195.322 56.0531C195.716 57.8719 196.153 59.6437 196.572 61.4C199.268 69.8358 199.871 78.801 198.328 87.5219C195.791 99.3312 195.172 100.159 184.844 113.991L181.203 118.878C166.481 138.716 140.937 142.084 125.294 142.084ZM235.231 56.9687H206.672C205.843 56.9687 205.048 56.6395 204.462 56.0534C203.876 55.4674 203.547 54.6725 203.547 53.8437C203.547 53.0149 203.876 52.2201 204.462 51.634C205.048 51.048 205.843 50.7187 206.672 50.7187H221.316L211.284 45.9719C210.901 45.8045 210.555 45.5619 210.267 45.2584C209.979 44.9548 209.755 44.5965 209.608 44.2047C209.461 43.813 209.394 43.3957 209.412 42.9776C209.429 42.5596 209.53 42.1493 209.709 41.7711C209.888 41.3929 210.141 41.0544 210.454 40.7759C210.766 40.4973 211.131 40.2843 211.527 40.1494C211.923 40.0146 212.342 39.9606 212.759 39.9908C213.177 40.0209 213.584 40.1346 213.956 40.325L236.569 51.0187C237.204 51.3261 237.716 51.8392 238.022 52.4745C238.328 53.1098 238.41 53.83 238.255 54.5181C238.1 55.2061 237.717 55.8215 237.168 56.2641C236.619 56.7068 235.937 56.9507 235.231 56.9562V56.9687Z" fill="#ADADAD"/>
<path d="M199.05 43.15C200.3 43.15 201.312 42.137 201.312 40.8875C201.312 39.638 200.3 38.625 199.05 38.625C197.8 38.625 196.788 39.638 196.788 40.8875C196.788 42.137 197.8 43.15 199.05 43.15Z" fill="#ADADAD"/>
<path d="M136.494 126.166C135.705 126.168 134.944 125.871 134.364 125.336C133.784 124.8 133.429 124.065 133.369 123.278C133.3 122.366 132.075 104.956 137.947 91.6125C136.728 90.1031 137.044 89.0031 138.478 87.4781L138.416 87.4094L140.603 85.4906L141.228 84.9562L144.025 82.4969L144.097 82.4375C154.909 73.0219 171.384 75.8 178.525 77.6219C178.518 72.9788 177.816 68.3629 176.441 63.9281C175.063 58.7022 174.027 53.392 173.341 48.0312C173.326 47.912 173.318 47.792 173.319 47.6719C173.319 38.1219 182.588 26.4562 193.403 26.4562C203.975 26.4562 215.753 33.3125 215.753 43.15C215.753 52.3531 206.741 59.8406 195.666 59.8406C191.843 59.8649 188.074 58.9404 184.697 57.15C184.336 56.9548 184.017 56.6905 183.758 56.372C183.499 56.0535 183.305 55.6872 183.188 55.2938C183.07 54.9005 183.031 54.4879 183.074 54.0795C183.116 53.6712 183.238 53.2752 183.433 52.9141C183.628 52.5529 183.892 52.2337 184.211 51.9748C184.529 51.7158 184.896 51.5221 185.289 51.4047C185.682 51.2873 186.095 51.2486 186.503 51.2907C186.912 51.3328 187.308 51.4548 187.669 51.65C190.133 52.9486 192.881 53.6154 195.666 53.5906C203.294 53.5906 209.503 48.9031 209.503 43.15C209.503 37.8781 201.528 32.7062 193.403 32.7062C185.972 32.7062 179.694 41.725 179.572 47.5062C180.234 52.5415 181.215 57.5297 182.509 62.4406C184.306 69.7906 185.859 76.1406 183.963 82.4875C183.841 82.892 183.639 83.2678 183.369 83.5921C183.098 83.9164 182.765 84.1826 182.389 84.3745C182.013 84.5664 181.602 84.68 181.18 84.7086C180.759 84.7371 180.336 84.68 179.938 84.5406C179.734 84.4687 159.313 77.5125 148.219 87.1375C140.016 95.4719 139.4 112.822 139.506 119.803C162.891 118.028 177.35 96.0719 177.5 95.8406C177.95 95.1444 178.658 94.6555 179.469 94.4815C180.279 94.3074 181.126 94.4624 181.822 94.9125C182.518 95.3625 183.007 96.0707 183.181 96.8812C183.355 97.6917 183.2 98.5382 182.75 99.2344C182.031 100.334 165 126.166 136.494 126.166ZM165 175C164.171 175 163.376 174.671 162.79 174.085C162.204 173.499 161.875 172.704 161.875 171.875V129.316C161.875 128.487 162.204 127.692 162.79 127.106C163.376 126.52 164.171 126.191 165 126.191C165.829 126.191 166.624 126.52 167.21 127.106C167.796 127.692 168.125 128.487 168.125 129.316V171.875C168.125 172.704 167.796 173.499 167.21 174.085C166.624 174.671 165.829 175 165 175Z" fill="#ADADAD"/>
<path d="M190.89 165.663C190.626 165.663 190.362 165.629 190.106 165.562L143.794 156.519C143.384 156.411 143 156.222 142.665 155.961C142.331 155.701 142.053 155.375 141.848 155.004C141.643 154.633 141.516 154.224 141.475 153.802C141.433 153.38 141.478 152.954 141.606 152.55L147.063 135.219C147.186 134.827 147.385 134.464 147.648 134.149C147.912 133.835 148.235 133.575 148.599 133.385C148.962 133.195 149.36 133.079 149.769 133.043C150.178 133.007 150.59 133.052 150.981 133.175C151.373 133.298 151.736 133.497 152.051 133.761C152.365 134.024 152.625 134.347 152.815 134.711C153.005 135.075 153.121 135.473 153.157 135.882C153.193 136.29 153.148 136.702 153.025 137.094L148.55 151.284L191.672 159.506C192.41 159.694 193.054 160.146 193.483 160.776C193.912 161.406 194.096 162.171 194 162.926C193.904 163.682 193.536 164.377 192.964 164.881C192.392 165.384 191.656 165.661 190.894 165.659L190.89 165.663Z" fill="#ADADAD"/>
<path d="M263.063 152.729V130.938C263.063 127.254 261.599 123.721 258.995 121.117C256.39 118.512 252.857 117.049 249.174 117.049C245.49 117.049 241.957 118.512 239.353 121.117C236.748 123.721 235.285 127.254 235.285 130.938V152.854C126.146 160.438 39.6458 251.583 39.6458 362.618C39.6458 478.583 134.014 572.951 250 572.951C365.986 572.951 460.354 478.583 460.354 362.618C460.354 251.028 372.986 159.5 263.063 152.729V152.729ZM250 545.174C149.326 545.174 67.4236 463.271 67.4236 362.618C67.4236 261.951 149.326 180.056 250 180.056C350.674 180.056 432.576 261.951 432.576 362.618C432.576 463.271 350.674 545.174 250 545.174Z" fill="#3F210C"/>
<path d="M429.215 225.181C431.823 227.781 435.357 229.239 439.04 229.234C442.723 229.229 446.254 227.761 448.854 225.153C451.455 222.545 452.913 219.011 452.908 215.328C452.902 211.645 451.434 208.114 448.826 205.514L412.764 169.542C411.473 168.253 409.941 167.231 408.255 166.534C406.569 165.838 404.763 165.481 402.939 165.483C401.115 165.486 399.309 165.848 397.625 166.549C395.941 167.25 394.412 168.277 393.125 169.569C390.527 172.179 389.07 175.712 389.075 179.395C389.08 183.077 390.547 186.607 393.153 189.208L429.215 225.181Z" fill="#3F210C"/>
<path d="M105.194 362.611C105.194 414.646 133.361 462.958 178.701 488.674C180.305 489.582 181.482 491.089 181.973 492.865C182.465 494.641 182.231 496.539 181.323 498.142C180.415 499.746 178.907 500.923 177.131 501.414C175.356 501.906 173.457 501.672 171.854 500.764C122.174 472.576 91.3056 419.639 91.3056 362.611C91.3056 358.764 94.4097 355.667 98.25 355.667C102.09 355.667 105.194 358.764 105.194 362.611Z" fill="#3F210C"/>
<path d="M208.569 505.403C211.217 506.247 213.887 507.021 216.576 507.722C217.459 507.948 218.288 508.346 219.017 508.893C219.746 509.44 220.359 510.125 220.822 510.91C221.285 511.694 221.589 512.562 221.716 513.464C221.843 514.366 221.791 515.285 221.562 516.167C221.102 517.949 219.952 519.476 218.366 520.411C216.78 521.346 214.887 521.613 213.104 521.153C210.139 520.396 207.236 519.562 204.347 518.632C202.624 518.047 201.199 516.809 200.379 515.185C199.558 513.56 199.409 511.678 199.962 509.944C200.516 508.21 201.728 506.763 203.337 505.914C204.947 505.064 206.826 504.881 208.569 505.403Z" fill="#3F210C"/>
<path d="M263.056 248.993V360.028L299.347 393.903C304.924 399.167 305.396 407.951 300.111 413.535C298.859 414.911 297.333 416.01 295.632 416.761C293.93 417.512 292.089 417.898 290.229 417.896C286.806 417.896 283.382 416.632 280.694 414.104L240.049 376.118C237.271 373.5 235.278 369.854 235.278 366.028V248.993C235.278 245.309 236.741 241.777 239.346 239.172C241.95 236.567 245.483 235.104 249.167 235.104C252.85 235.104 256.383 236.567 258.988 239.172C261.592 241.777 263.056 245.309 263.056 248.993Z" fill="#3F210C"/>
</svg>
